<?xml version="1.0" encoding="UTF-8" standalone="no"?>
<!-- Created with Inkscape (http://www.inkscape.org/) -->

<svg
   xmlns:dc="http://purl.org/dc/elements/1.1/"
   xmlns:cc="http://creativecommons.org/ns#"
   xmlns:rdf="http://www.w3.org/1999/02/22-rdf-syntax-ns#"
   xmlns:svg="http://www.w3.org/2000/svg"
   xmlns="http://www.w3.org/2000/svg"
   xmlns:sodipodi="http://sodipodi.sourceforge.net/DTD/sodipodi-0.dtd"
   xmlns:inkscape="http://www.inkscape.org/namespaces/inkscape"
   width="1280mm"
   height="880mm"
   viewBox="0 0 4535.4331 3118.1103"
   id="svg4240"
   version="1.1"
   inkscape:version="0.92.3 (2405546, 2018-03-11)"
   sodipodi:docname="sapin_noel_etape_7.1.svg">
  <title
     id="title4788">Découpage Laser</title>
  <defs
     id="defs4242" />
  <sodipodi:namedview
     id="base"
     pagecolor="#ffffff"
     bordercolor="#666666"
     borderopacity="1.0"
     inkscape:pageopacity="0.0"
     inkscape:pageshadow="2"
     inkscape:zoom="1.014956"
     inkscape:cx="947.9072"
     inkscape:cy="576.66971"
     inkscape:document-units="mm"
     inkscape:current-layer="layer1"
     showgrid="true"
     inkscape:window-width="1954"
     inkscape:window-height="2004"
     inkscape:window-x="765"
     inkscape:window-y="98"
     inkscape:window-maximized="0">
    <inkscape:grid
       type="xygrid"
       id="grid3735" />
  </sodipodi:namedview>
  <metadata
     id="metadata4245">
    <rdf:RDF>
      <cc:Work
         rdf:about="">
        <dc:format>image/svg+xml</dc:format>
        <dc:type
           rdf:resource="http://purl.org/dc/dcmitype/StillImage" />
        <dc:title>Découpage Laser</dc:title>
        <dc:creator>
          <cc:Agent>
            <dc:title />
          </cc:Agent>
        </dc:creator>
        <dc:publisher>
          <cc:Agent>
            <dc:title>Fablab Lannion</dc:title>
          </cc:Agent>
        </dc:publisher>
        <dc:source>http://fablab-lannion.org:8080/wiki/index.php?title=Chaine_logiciel_pour_d%C3%A9coupeuse_laser#Inkscape</dc:source>
        <dc:contributor>
          <cc:Agent>
            <dc:title>JJL</dc:title>
          </cc:Agent>
        </dc:contributor>
        <cc:license
           rdf:resource="http://creativecommons.org/licenses/by-sa/3.0/" />
      </cc:Work>
      <cc:License
         rdf:about="http://creativecommons.org/licenses/by-sa/3.0/">
        <cc:permits
           rdf:resource="http://creativecommons.org/ns#Reproduction" />
        <cc:permits
           rdf:resource="http://creativecommons.org/ns#Distribution" />
        <cc:requires
           rdf:resource="http://creativecommons.org/ns#Notice" />
        <cc:requires
           rdf:resource="http://creativecommons.org/ns#Attribution" />
        <cc:permits
           rdf:resource="http://creativecommons.org/ns#DerivativeWorks" />
        <cc:requires
           rdf:resource="http://creativecommons.org/ns#ShareAlike" />
      </cc:License>
    </rdf:RDF>
  </metadata>
  <g
     inkscape:label="Calque 1"
     inkscape:groupmode="layer"
     id="layer1"
     transform="translate(0,2065.7481)">
    <path
       style="fill:none;stroke:#ff0000;stroke-width:0.59127808px;stroke-linecap:butt;stroke-linejoin:miter;stroke-opacity:1"
       d="M 566.92969 2078.7402 C 530.01824 2207.5769 482.46275 2238.8409 434.64648 2267.7168 C 450.43644 2301.2194 477.78487 2309.0346 510.23633 2305.5117 C 484.34646 2413.543 421.64607 2460.2219 340.1582 2475.5898 C 357.91445 2524.1104 393.09 2546.8795 453.54297 2532.2832 C 397.36021 2677.6991 325.96602 2749.3941 245.66992 2777.9531 C 269.06914 2820.7299 306.44964 2847.3746 377.95312 2834.6465 C 333.49952 2962.4819 274.23112 3048.567 188.97656 3061.418 C 252.44918 3169.4791 431.47334 3124.367 566.92969 3137.0078 C 702.38603 3124.367 881.41019 3169.479 944.88281 3061.418 C 859.62825 3048.567 800.35986 2962.482 755.90625 2834.6465 C 827.40973 2847.3747 864.79023 2820.73 888.18945 2777.9531 C 807.89337 2749.3941 736.4972 2677.6991 680.31445 2532.2832 C 740.76741 2546.8795 775.94494 2524.1104 793.70117 2475.5898 C 712.21331 2460.2218 649.51097 2413.543 623.62109 2305.5117 C 656.07256 2309.0346 683.42295 2301.2194 699.21289 2267.7168 C 651.39662 2238.841 603.84112 2207.5769 566.92969 2078.7402 z "
       transform="matrix(0.93750002,0,0,0.93750002,0,-2065.7481)"
       id="path3739" />
    <path
       inkscape:connector-curvature="0"
       style="fill:none;stroke:#ff0000;stroke-width:0.5543232px;stroke-linecap:butt;stroke-linejoin:miter;stroke-opacity:1"
       d="m 1346.4572,-116.92904 c -34.6045,120.7844008 -79.1878,150.0944 -124.0155,177.165601 14.803,31.4087 40.4422,38.7354 70.8654,35.4327 -24.2717,101.279399 -83.0533,145.040799 -159.4482,159.448199 16.6465,45.4881 49.6236,66.8341 106.2982,53.1501 -52.6713,136.3274 -119.6034,203.5415 -194.881,230.3155 21.9368,40.1033 56.981,65.0827 124.0155,53.1501 -41.6752,119.8457 -97.2393,200.5505 -177.16549,212.5983 59.50559,101.3072 227.34069,59.0147 354.33109,70.8654 126.9903,-11.8507 294.8254,30.4418 354.331,-70.8654 -79.9261,-12.0478 -135.4902,-92.7525 -177.1655,-212.5983 67.0345,11.9327 102.0787,-13.0467 124.0155,-53.1501 -75.2776,-26.774 -142.2115,-93.9881 -194.8828,-230.3155 56.6746,13.684 89.6536,-7.662 106.3,-53.1501 -76.3948,-14.4075 -135.1783,-58.1688 -159.45,-159.448199 30.4232,3.3027 56.0642,-4.024 70.8673,-35.4327 C 1425.6449,33.16546 1381.0616,3.8553608 1346.4572,-116.92904 Z"
       id="path3739-6" />
    <rect
       style="fill:none;stroke:#ff0000;stroke-width:0.50485921"
       id="rect14"
       width="10.629922"
       height="513.77954"
       x="1341.1417"
       y="-134.64572" />
    <rect
       style="fill:none;stroke:#ff0000;stroke-width:0.72618437"
       id="rect19"
       width="10.629922"
       height="531.49609"
       x="526.18109"
       y="379.13385" />
  </g>
</svg>
