<?xml version="1.0" encoding="UTF-8" standalone="no"?>
<!-- Created with Inkscape (http://www.inkscape.org/) -->

<svg
   xmlns:dc="http://purl.org/dc/elements/1.1/"
   xmlns:cc="http://creativecommons.org/ns#"
   xmlns:rdf="http://www.w3.org/1999/02/22-rdf-syntax-ns#"
   xmlns:svg="http://www.w3.org/2000/svg"
   xmlns="http://www.w3.org/2000/svg"
   xmlns:sodipodi="http://sodipodi.sourceforge.net/DTD/sodipodi-0.dtd"
   xmlns:inkscape="http://www.inkscape.org/namespaces/inkscape"
   width="1280mm"
   height="880mm"
   viewBox="0 0 4535.4331 3118.1103"
   id="svg4240"
   version="1.1"
   inkscape:version="0.92.3 (2405546, 2018-03-11)"
   sodipodi:docname="sapin_noel_etape_8.2.svg">
  <title
     id="title4788">Découpage Laser</title>
  <defs
     id="defs4242" />
  <sodipodi:namedview
     id="base"
     pagecolor="#ffffff"
     bordercolor="#666666"
     borderopacity="1.0"
     inkscape:pageopacity="0.0"
     inkscape:pageshadow="2"
     inkscape:zoom="1.014956"
     inkscape:cx="1424.7929"
     inkscape:cy="496.36674"
     inkscape:document-units="mm"
     inkscape:current-layer="layer1"
     showgrid="true"
     inkscape:window-width="1954"
     inkscape:window-height="2004"
     inkscape:window-x="143"
     inkscape:window-y="126"
     inkscape:window-maximized="0"
     inkscape:snap-grids="true">
    <inkscape:grid
       type="xygrid"
       id="grid3735" />
  </sodipodi:namedview>
  <metadata
     id="metadata4245">
    <rdf:RDF>
      <cc:Work
         rdf:about="">
        <dc:format>image/svg+xml</dc:format>
        <dc:type
           rdf:resource="http://purl.org/dc/dcmitype/StillImage" />
        <dc:title>Découpage Laser</dc:title>
        <dc:creator>
          <cc:Agent>
            <dc:title />
          </cc:Agent>
        </dc:creator>
        <dc:publisher>
          <cc:Agent>
            <dc:title>Fablab Lannion</dc:title>
          </cc:Agent>
        </dc:publisher>
        <dc:source>http://fablab-lannion.org:8080/wiki/index.php?title=Chaine_logiciel_pour_d%C3%A9coupeuse_laser#Inkscape</dc:source>
        <dc:contributor>
          <cc:Agent>
            <dc:title>JJL</dc:title>
          </cc:Agent>
        </dc:contributor>
        <cc:license
           rdf:resource="http://creativecommons.org/licenses/by-sa/3.0/" />
      </cc:Work>
      <cc:License
         rdf:about="http://creativecommons.org/licenses/by-sa/3.0/">
        <cc:permits
           rdf:resource="http://creativecommons.org/ns#Reproduction" />
        <cc:permits
           rdf:resource="http://creativecommons.org/ns#Distribution" />
        <cc:requires
           rdf:resource="http://creativecommons.org/ns#Notice" />
        <cc:requires
           rdf:resource="http://creativecommons.org/ns#Attribution" />
        <cc:permits
           rdf:resource="http://creativecommons.org/ns#DerivativeWorks" />
        <cc:requires
           rdf:resource="http://creativecommons.org/ns#ShareAlike" />
      </cc:License>
    </rdf:RDF>
  </metadata>
  <g
     inkscape:label="Calque 1"
     inkscape:groupmode="layer"
     id="layer1"
     transform="translate(0,2065.7481)">
    <g
       id="g62"
       transform="translate(17.71626,-17.716791)">
      <path
         transform="matrix(0.93750002,0,0,0.93750002,0,-2065.7481)"
         id="path3739"
         d="m 566.92969,2003.1504 -17.77344,51.1289 -54.11719,1.1016 43.13282,32.7031 -15.67383,51.8105 31.93945,-22.2246 c -34.83507,96.7227 -77.20956,124.3323 -119.79102,150.0469 15.78996,33.5026 43.13839,41.3178 75.58985,37.7949 -25.88987,108.0313 -88.59026,154.7102 -170.07813,170.0781 17.75625,48.5206 52.9318,71.2897 113.38477,56.6934 -56.18276,145.4159 -127.57695,217.1109 -207.87305,245.6699 23.39922,42.7768 60.77972,69.4215 132.2832,56.6934 -44.4536,127.8354 -103.722,213.9205 -188.97656,226.7715 62.59135,106.5607 237.5448,64.1756 372.28321,75.0996 V 2607.875 h 11.33789 v 528.6445 c 134.73868,-10.9245 309.69348,31.4597 372.28515,-75.1015 -85.25456,-12.851 -144.52295,-98.936 -188.97656,-226.7715 71.50348,12.7282 108.88398,-13.9165 132.2832,-56.6934 -80.29608,-28.559 -151.69225,-100.254 -207.875,-245.6699 60.45296,14.5963 95.63049,-8.1728 113.38672,-56.6934 -81.48786,-15.368 -144.1902,-62.0468 -170.08008,-170.0781 32.45147,3.5229 59.80186,-4.2923 75.5918,-37.7949 -42.58145,-25.7145 -84.95596,-53.3242 -119.79101,-150.0469 l 31.9375,22.2246 -15.67383,-51.8105 43.13476,-32.7031 -54.11914,-1.1016 z"
         style="fill:none;stroke:#ff0000;stroke-width:0.59127808px;stroke-linecap:butt;stroke-linejoin:miter;stroke-opacity:1"
         inkscape:connector-curvature="0" />
      <circle
         r="12.401575"
         cy="66.467415"
         cx="453.04346"
         id="path54"
         style="fill:none;stroke:#ff0000;stroke-width:0.9375" />
      <circle
         r="12.401574"
         cy="54.781982"
         cx="605.47577"
         id="path54-6"
         style="fill:none;stroke:#ff0000;stroke-width:0.93749994" />
      <circle
         r="12.401574"
         cy="274.61911"
         cx="380.09656"
         id="path54-2"
         style="fill:none;stroke:#ff0000;stroke-width:0.93749994" />
      <circle
         r="12.401574"
         cy="266.30594"
         cx="684.45087"
         id="path54-9"
         style="fill:none;stroke:#ff0000;stroke-width:0.93749994" />
      <circle
         r="12.401574"
         cy="226.12563"
         cx="478.93085"
         id="path54-1"
         style="fill:none;stroke:#ff0000;stroke-width:0.93749994" />
      <circle
         r="12.401574"
         cy="191.02557"
         cx="576.84149"
         id="path54-27"
         style="fill:none;stroke:#ff0000;stroke-width:0.93749994" />
      <circle
         r="12.401574"
         cy="372.52975"
         cx="586.07843"
         id="path54-0"
         style="fill:none;stroke:#ff0000;stroke-width:0.93749994" />
      <circle
         r="12.401574"
         cy="548.02997"
         cx="750.03253"
         id="path54-93"
         style="fill:none;stroke:#ff0000;stroke-width:0.93749994" />
      <circle
         r="12.401574"
         cy="560.0379"
         cx="619.33105"
         id="path54-60"
         style="fill:none;stroke:#ff0000;stroke-width:0.93749994" />
      <circle
         r="12.401574"
         cy="545.25891"
         cx="299.7359"
         id="path54-62"
         style="fill:none;stroke:#ff0000;stroke-width:0.93749994" />
      <circle
         r="12.401574"
         cy="456.12329"
         cx="450.29663"
         id="path54-61"
         style="fill:none;stroke:#ff0000;stroke-width:0.93749994" />
      <circle
         r="12.401574"
         cy="617.3064"
         cx="411.96368"
         id="path54-8"
         style="fill:none;stroke:#ff0000;stroke-width:0.93749994" />
      <circle
         r="12.401574"
         cy="808.97107"
         cx="240.62004"
         id="path54-7"
         style="fill:none;stroke:#ff0000;stroke-width:0.93749994" />
      <circle
         r="12.401574"
         cy="818.6698"
         cx="783.74707"
         id="path54-92"
         style="fill:none;stroke:#ff0000;stroke-width:0.93749994" />
      <circle
         r="12.401574"
         cy="744.31311"
         cx="671.05743"
         id="path54-02"
         style="fill:none;stroke:#ff0000;stroke-width:0.93749994" />
      <circle
         r="12.401574"
         cy="825.59741"
         cx="435.05582"
         id="path54-3"
         style="fill:none;stroke:#ff0000;stroke-width:0.93749994" />
    </g>
    <g
       id="g83">
      <path
         transform="matrix(0.93750002,0,0,0.93750002,0,-2065.7481)"
         id="path3739-6"
         d="M 1430.5508 2097.502 C 1394.5072 2210.7148 1349.3405 2240.2982 1303.9375 2267.7168 C 1319.7274 2301.2194 1347.0759 2309.0346 1379.5273 2305.5117 C 1353.6375 2413.5431 1290.9371 2460.222 1209.4492 2475.5898 C 1227.2055 2524.1105 1262.3811 2546.8795 1322.834 2532.2832 C 1266.6513 2677.6991 1195.257 2749.3942 1114.9609 2777.9531 C 1138.3602 2820.73 1175.7407 2847.3746 1247.2441 2834.6465 C 1202.7906 2962.4819 1143.5222 3048.567 1058.2676 3061.418 C 1121.7402 3169.479 1300.7643 3124.3671 1436.2207 3137.0078 C 1571.677 3124.3671 1750.7012 3169.479 1814.1738 3061.418 C 1728.9193 3048.567 1669.6509 2962.482 1625.1973 2834.6465 C 1696.7007 2847.3747 1734.0812 2820.7301 1757.4805 2777.9531 C 1677.1844 2749.3942 1605.7882 2677.6991 1549.6055 2532.2832 C 1610.0584 2546.8795 1645.236 2524.1105 1662.9922 2475.5898 C 1581.5044 2460.2218 1518.8019 2413.5431 1492.9121 2305.5117 C 1525.3635 2309.0346 1552.7139 2301.2194 1568.5039 2267.7168 C 1523.1008 2240.2983 1477.9342 2210.7148 1441.8906 2097.502 L 1441.8906 2607.873 L 1430.5508 2607.873 L 1430.5508 2097.502 z "
         style="fill:none;stroke:#ff0000;stroke-width:0.59127808px;stroke-linecap:butt;stroke-linejoin:miter;stroke-opacity:1" />
      <circle
         r="12.401574"
         cy="65.866211"
         cx="1261.7543"
         id="path54-75"
         style="fill:none;stroke:#ff0000;stroke-width:0.93749994" />
      <circle
         r="12.401574"
         cy="47.85434"
         cx="1409.5438"
         id="path54-922"
         style="fill:none;stroke:#ff0000;stroke-width:0.93749994" />
      <circle
         r="12.401574"
         cy="279.23752"
         cx="1503.2979"
         id="path54-89"
         style="fill:none;stroke:#ff0000;stroke-width:0.93749994" />
      <circle
         r="12.401574"
         cy="266.30594"
         cx="1189.7068"
         id="path54-73"
         style="fill:none;stroke:#ff0000;stroke-width:0.93749994" />
      <circle
         r="12.401574"
         cy="226.12563"
         cx="1287.6174"
         id="path54-612"
         style="fill:none;stroke:#ff0000;stroke-width:0.93749994" />
      <circle
         r="12.401574"
         cy="301.40598"
         cx="1398.9215"
         id="path54-931"
         style="fill:none;stroke:#ff0000;stroke-width:0.93749994" />
      <circle
         r="12.401574"
         cy="405.32059"
         cx="1263.1398"
         id="path54-94"
         style="fill:none;stroke:#ff0000;stroke-width:0.93749994" />
      <circle
         r="12.401574"
         cy="443.65353"
         cx="1460.3466"
         id="path54-78"
         style="fill:none;stroke:#ff0000;stroke-width:0.93749994" />
      <circle
         r="12.401574"
         cy="546.64447"
         cx="1596.5902"
         id="path54-4"
         style="fill:none;stroke:#ff0000;stroke-width:0.93749994" />
      <circle
         r="12.401574"
         cy="560.96161"
         cx="1117.1975"
         id="path54-5"
         style="fill:none;stroke:#ff0000;stroke-width:0.93749994" />
      <circle
         r="12.401574"
         cy="531.86548"
         cx="1222.4977"
         id="path54-03"
         style="fill:none;stroke:#ff0000;stroke-width:0.93749994" />
      <circle
         r="12.401574"
         cy="518.9339"
         cx="1394.3031"
         id="path54-610"
         style="fill:none;stroke:#ff0000;stroke-width:0.93749994" />
      <circle
         r="12.401574"
         cy="663.08826"
         cx="1494.3939"
         id="path54-63"
         style="fill:none;stroke:#ff0000;stroke-width:0.93749994" />
      <circle
         r="12.401574"
         cy="801.55481"
         cx="1072.4628"
         id="path54-20"
         style="fill:none;stroke:#ff0000;stroke-width:0.93749994" />
      <circle
         r="12.401574"
         cy="837.47778"
         cx="1605.4285"
         id="path54-615"
         style="fill:none;stroke:#ff0000;stroke-width:0.93749994" />
      <circle
         r="12.401574"
         cy="773.52399"
         cx="1428.7241"
         id="path54-54"
         style="fill:none;stroke:#ff0000;stroke-width:0.93749994" />
      <circle
         r="12.401574"
         cy="668.19006"
         cx="1280.835"
         id="path54-56"
         style="fill:none;stroke:#ff0000;stroke-width:0.93749994" />
      <circle
         r="12.401574"
         cy="822.50977"
         cx="1219.4666"
         id="path54-937"
         style="fill:none;stroke:#ff0000;stroke-width:0.93749994" />
    </g>
  </g>
</svg>
